<svg width="23" height="26" viewBox="0 0 23 26" fill="none" xmlns="http://www.w3.org/2000/svg">
<g clip-path="url(#clip0_707_109)">
<path d="M11.3801 7.16025C8.15042 7.16025 5.54534 9.76533 5.54534 12.995C5.54534 16.2247 8.15042 18.8298 11.3801 18.8298C14.6098 18.8298 17.2149 16.2247 17.2149 12.995C17.2149 9.76533 14.6098 7.16025 11.3801 7.16025ZM11.3801 16.7884C9.29299 16.7884 7.58674 15.0872 7.58674 12.995C7.58674 10.9028 9.28792 9.20166 11.3801 9.20166C13.4723 9.20166 15.1735 10.9028 15.1735 12.995C15.1735 15.0872 13.4672 16.7884 11.3801 16.7884V16.7884ZM18.8145 6.92158C18.8145 7.67822 18.2051 8.28252 17.4535 8.28252C16.6969 8.28252 16.0926 7.67314 16.0926 6.92158C16.0926 6.17002 16.702 5.56064 17.4535 5.56064C18.2051 5.56064 18.8145 6.17002 18.8145 6.92158ZM22.6789 8.30283C22.5926 6.47979 22.1762 4.86494 20.8406 3.53447C19.5102 2.204 17.8953 1.7876 16.0723 1.69619C14.1934 1.58955 8.56174 1.58955 6.68284 1.69619C4.86487 1.78252 3.25002 2.19893 1.91448 3.52939C0.578931 4.85986 0.167603 6.47471 0.0761963 8.29775C-0.0304443 10.1767 -0.0304443 15.8083 0.0761963 17.6872C0.162524 19.5103 0.578931 21.1251 1.91448 22.4556C3.25002 23.786 4.85979 24.2024 6.68284 24.2938C8.56174 24.4005 14.1934 24.4005 16.0723 24.2938C17.8953 24.2075 19.5102 23.7911 20.8406 22.4556C22.1711 21.1251 22.5875 19.5103 22.6789 17.6872C22.7856 15.8083 22.7856 10.1817 22.6789 8.30283V8.30283ZM20.2516 19.7032C19.8555 20.6985 19.0887 21.4653 18.0883 21.8665C16.5903 22.4606 13.0356 22.3235 11.3801 22.3235C9.72463 22.3235 6.16487 22.4556 4.6719 21.8665C3.67659 21.4704 2.90979 20.7036 2.50862 19.7032C1.91448 18.2052 2.05159 14.6505 2.05159 12.995C2.05159 11.3396 1.91956 7.77979 2.50862 6.28682C2.90471 5.2915 3.67151 4.52471 4.6719 4.12353C6.16995 3.52939 9.72463 3.6665 11.3801 3.6665C13.0356 3.6665 16.5953 3.53447 18.0883 4.12353C19.0836 4.51963 19.8504 5.28643 20.2516 6.28682C20.8457 7.78486 20.7086 11.3396 20.7086 12.995C20.7086 14.6505 20.8457 18.2103 20.2516 19.7032Z" fill="white"/>
</g>
<defs>
<clipPath id="clip0_707_109">
<rect width="22.75" height="26" fill="white"/>
</clipPath>
</defs>
</svg>
