<svg width="26" height="30" viewBox="0 0 26 30" fill="none" xmlns="http://www.w3.org/2000/svg">
<path d="M5.82249 25.99H0.434184V8.63814H5.82249V25.99ZM3.12544 6.27119C1.40243 6.27119 0.00488281 4.84405 0.00488281 3.12104C0.00488282 2.29342 0.333655 1.4997 0.918872 0.914478C1.50409 0.32926 2.29782 0.000488281 3.12544 0.000488281C3.95306 0.000488281 4.74679 0.32926 5.332 0.914478C5.91722 1.4997 6.24599 2.29342 6.24599 3.12104C6.24599 4.84405 4.84786 6.27119 3.12544 6.27119ZM25.9892 25.99H20.6125V17.5432C20.6125 15.5302 20.5719 12.9486 17.811 12.9486C15.0095 12.9486 14.5802 15.1357 14.5802 17.3982V25.99H9.19773V8.63814H14.3656V11.0051H14.441C15.1604 9.64178 16.9176 8.20304 19.5392 8.20304C24.9925 8.20304 25.995 11.7941 25.995 16.4584V25.99H25.9892Z" fill="white"/>
</svg>
