<svg width="26" height="26" viewBox="0 0 26 26" fill="none" xmlns="http://www.w3.org/2000/svg">
<path d="M23.3274 7.70456C23.3439 7.93551 23.3439 8.16651 23.3439 8.39747C23.3439 15.4418 17.9822 23.5586 8.18274 23.5586C5.16369 23.5586 2.35914 22.6842 0 21.1665C0.428949 21.216 0.841344 21.2325 1.2868 21.2325C3.77787 21.2325 6.07105 20.3911 7.90227 18.9559C5.55963 18.9063 3.59643 17.3721 2.92002 15.2604C3.25 15.3099 3.57993 15.3429 3.92641 15.3429C4.40482 15.3429 4.88328 15.2769 5.32868 15.1614C2.88707 14.6665 1.05579 12.5218 1.05579 9.93172V9.86576C1.76516 10.2617 2.5901 10.5092 3.4644 10.5421C2.02912 9.58524 1.0888 7.95202 1.0888 6.10429C1.0888 5.11446 1.35271 4.2071 1.81467 3.41522C4.43777 6.64871 8.38068 8.76035 12.802 8.99135C12.7195 8.59541 12.67 8.18302 12.67 7.77057C12.67 4.834 15.0456 2.44189 17.9987 2.44189C19.5329 2.44189 20.9187 3.08529 21.8921 4.12463C23.0963 3.89368 24.2511 3.44823 25.274 2.83784C24.878 4.07517 24.0367 5.11451 22.9314 5.77436C24.0037 5.65894 25.0431 5.36192 25.9999 4.94952C25.2741 6.00532 24.3667 6.94563 23.3274 7.70456V7.70456Z" fill="white"/>
</svg>
