<svg width="130" height="30" viewBox="0 0 130 30" fill="none" xmlns="http://www.w3.org/2000/svg">
<g clip-path="url(#clip0_707_82)">
<path d="M51.4976 21.4388L52.6798 24.7482C51.239 25.5036 49.9091 25.8633 48.6531 25.8633C46.7321 25.8633 45.2544 25.3597 44.1831 24.3525C43.1117 23.3453 42.5576 21.8345 42.5576 19.8201V13.5971H39.2328V10.3237H42.5576V4.10072H46.6582V10.3237H51.7193V13.5971H46.6582V19.5683C46.6582 21.295 47.397 22.1583 48.9117 22.1583C49.7244 22.1583 50.5741 21.9065 51.4976 21.4388Z" fill="#1D1D21"/>
<path d="M62.9498 10.3597C64.7969 10.3597 66.3115 10.9352 67.4567 12.1223C68.6019 13.3094 69.1561 14.8201 69.1561 16.6906V25.8633H65.0555V17.554C65.0555 16.4748 64.7599 15.6475 64.2058 15C63.6517 14.3525 62.8759 14.0288 61.9154 14.0288C59.3664 14.0288 58.0734 15.7554 58.0734 19.2446V25.9353H53.9728V4.10072H58.0734V12.1583C59.2925 10.9352 60.9179 10.3597 62.9498 10.3597Z" fill="#1D1D21"/>
<path d="M72.6655 4.82014C73.1458 4.35251 73.7369 4.10072 74.4388 4.10072C75.1407 4.10072 75.7317 4.35251 76.212 4.82014C76.6923 5.28777 76.9139 5.86331 76.9139 6.51079C76.9139 7.15827 76.6923 7.73381 76.212 8.16546C75.7317 8.59712 75.1407 8.81295 74.4388 8.81295C73.6999 8.81295 73.1088 8.59712 72.6655 8.16546C72.1853 7.73381 71.9636 7.15827 71.9636 6.51079C71.9636 5.86331 72.2222 5.28777 72.6655 4.82014ZM76.5075 25.8633H72.4069V10.3597H76.5075V25.8633Z" fill="#1D1D21"/>
<path d="M89.1049 10.3597C90.952 10.3597 92.4667 10.9353 93.6119 12.1223C94.7571 13.3094 95.3112 14.8201 95.3112 16.6906V25.8633H91.2106V17.554C91.2106 16.4748 90.9151 15.6475 90.361 15C89.8068 14.3525 89.031 14.0288 88.0705 14.0288C85.5215 14.0288 84.2285 15.7554 84.2285 19.2446V25.9352H80.1279V10.3597H84.2285V12.1583C85.4846 10.9353 87.11 10.3597 89.1049 10.3597Z" fill="#1D1D21"/>
<path d="M114.669 25.8633H109.202L103.106 19.964H102.404V25.8633H98.3036V4.10072H102.404V16.0432H103.143L108.684 10.7914H113.819L106.394 18.0216L114.669 25.8633Z" fill="#1D1D21"/>
<path d="M127.377 15.2518C128.19 15.6115 128.855 16.1511 129.298 16.8705C129.741 17.5899 130 18.4532 130 19.4245C130 21.3669 129.335 22.9137 128.005 24.1007C126.675 25.2878 124.902 25.8993 122.722 25.8993C120.58 25.8993 118.807 25.3237 117.44 24.1367C116.073 22.9856 115.297 21.4029 115.112 19.4964L119.028 18.741C119.361 21.1511 120.58 22.3381 122.759 22.3381C123.757 22.3381 124.606 22.0863 125.235 21.5468C125.899 21.0072 126.232 20.3237 126.232 19.4604C126.232 18.705 125.973 18.0935 125.419 17.6619C124.902 17.2302 124.126 17.0144 123.129 17.0144H120.136V13.4532H122.87C123.831 13.4532 124.57 13.2374 125.087 12.8057C125.604 12.3741 125.863 11.7986 125.863 11.0432C125.863 10.2158 125.567 9.56834 125.013 9.06474C124.422 8.56115 123.683 8.30935 122.722 8.30935C121.725 8.30935 120.912 8.59712 120.247 9.20863C119.619 9.82014 119.25 10.7194 119.176 11.9424L115.371 11.187C115.519 9.2446 116.294 7.69784 117.624 6.47482C118.954 5.28777 120.654 4.67625 122.722 4.67625C124.828 4.67625 126.491 5.25179 127.784 6.43884C129.076 7.58992 129.705 9.13669 129.705 11.0072C129.705 13.0216 128.929 14.4245 127.377 15.2518Z" fill="#1D1D21"/>
<path d="M30.736 0.503597V6.83453C30.736 7.1223 30.5143 7.33813 30.2188 7.33813H0.517174C0.0738665 7.33813 -0.147787 6.83453 0.147751 6.51079L6.05852 0.179856C6.16935 0.0719424 6.28017 0 6.42794 0H30.2188C30.5143 0 30.736 0.215827 30.736 0.503597Z" fill="#FA7268"/>
<path d="M30.736 11.9065V18.2374C30.736 18.5252 30.5144 18.741 30.2189 18.741H10.0853C9.64198 18.741 9.42033 18.2374 9.71587 17.9137L15.6266 11.5827C15.7375 11.4748 15.8483 11.4029 15.9961 11.4029H30.2189C30.5144 11.4029 30.736 11.6187 30.736 11.9065Z" fill="#FA7268"/>
<path d="M26.9678 30C29.0489 30 30.7359 28.3573 30.7359 26.3309C30.7359 24.3046 29.0489 22.6619 26.9678 22.6619C24.8868 22.6619 23.1997 24.3046 23.1997 26.3309C23.1997 28.3573 24.8868 30 26.9678 30Z" fill="#FA7268"/>
</g>
<defs>
<clipPath id="clip0_707_82">
<rect width="130" height="30" fill="white"/>
</clipPath>
</defs>
</svg>
